<svg id="Capa_1" data-name="Capa 1" xmlns="http://www.w3.org/2000/svg" viewBox="0 0 1159.4 377"><defs><style>.cls-1{fill:#1a1a1a;}</style></defs><path class="cls-1" d="M122.09,228.94v98.31a5,5,0,0,0-5,5h-54a5,5,0,0,0-5-5V49.75a5,5,0,0,0,5-5h59c75.3,0,101.47,27.38,101.47,87.78,0,30-5,52.66-19.76,65a5,5,0,0,1-.41,7.33C230.11,232,222.24,293.08,228,326.41a5,5,0,0,0-4.92,5.84H169.42a5,5,0,0,0-4.95-4.3C160.61,299.44,168.8,250,147,225.62a5,5,0,0,1-3.75-1.68h-16.2A5,5,0,0,1,122.09,228.94Zm0-52.77a5,5,0,0,1,5.16,5c26.58-.93,32.29-9.84,32.29-40.18s-5.7-42.8-32.22-44.17a5,5,0,0,1-5.23,5Z"/><path class="cls-1" d="M317.37,49.75v277.5a5,5,0,0,0-5,5h-54a5,5,0,0,0-5-5V49.75a5,5,0,0,0,5-5h54A5,5,0,0,0,317.37,49.75Z"/><path class="cls-1" d="M341.53,327.25V49.75a5,5,0,0,0,5-5H470.21a5,5,0,0,0,5,5v46a5,5,0,0,0-5,5H410.55a5,5,0,0,1-5,5v48.79a5,5,0,0,1,5,5h39.53a5,5,0,0,0,5,5v46a5,5,0,0,0-5,5H410.55a5,5,0,0,1-5,5V327.25a5,5,0,0,0-5,5h-54A5,5,0,0,0,341.53,327.25Z"/><path class="cls-1" d="M604.53,48.66l62.19,277.5a5,5,0,0,0-4.88,6.09H608.3a5,5,0,0,0-4.93-4.18l-5.87-35.52a5,5,0,0,1-4.93-4.19H550.72a5,5,0,0,1-4.93,4.19l-5.87,35.52a5,5,0,0,0-4.93,4.18H481.45a5,5,0,0,0-4.88-6.09l62.19-277.5a5,5,0,0,0,4.88-3.91h56A5,5,0,0,0,604.53,48.66ZM560.82,236.42h21.25a5,5,0,0,1,4.93-5.81l-10.62-65.05a5,5,0,0,1-9.87,0l-10.63,65.05A5,5,0,0,1,560.82,236.42Z"/><path class="cls-1" d="M761.25,276.28h55.64a5,5,0,0,0,5,5v46a5,5,0,0,0-5,5H697.23a5,5,0,0,0-5-5V49.75a5,5,0,0,0,5-5h54a5,5,0,0,0,5,5V271.28A5,5,0,0,1,761.25,276.28Z"/><path class="cls-1" d="M1101.3,55.78c-.09-1.35-.24-2.69-.31-4a1.66,1.66,0,0,0-.65-1.23,21,21,0,0,0-8.69-4.54,28.77,28.77,0,0,0-5-.64c-2.69-.12-5.38-.2-8-.39a71.64,71.64,0,0,0-7.47-.17,23.65,23.65,0,0,0-3.84.44,87.74,87.74,0,0,0-9.7,2.59c-6.82,2.11-13.48,4.66-20.1,7.25-4.06,1.56-8.07,3.25-12,5.21a52.09,52.09,0,0,0-7,4.78,1.87,1.87,0,0,0-.31.32,30,30,0,0,0-2.74,3.5,107.1,107.1,0,0,0-8.62,17.32,196.19,196.19,0,0,0-10.07,36.34c-.91,4.94-1.7,9.89-2.37,14.89-.63,4.44-1.16,8.93-1.59,13.4-.38,4.06-.67,8.12-1,12.18q-.61,8.1-.8,16.21C991,183,991,186.7,991,190.44a1.86,1.86,0,0,1-.17,1.18,4.68,4.68,0,0,1-2.16-.5c-1.49-.73-3-1.45-4.51-2.17q-6.68-3.19-13.31-6.43a1.27,1.27,0,0,0-1.34,0c-.73.46-1.49.87-2.24,1.27-1.42.77-1,.77-2.26,0-1-.63-1.92-1.25-2.88-1.93a.73.73,0,0,0-1,0c-.22.17-.48.32-.7.46-.93.62-1.85,1.22-2.76,1.85a.76.76,0,0,1-.91,0c-.75-.43-1.49-.86-2.26-1.27-.46-.24-.89-.7-1.39-.65a4.31,4.31,0,0,0-1.32.55Q943.26,187,934.79,191a4.7,4.7,0,0,1-2.49.58,6.14,6.14,0,0,1,0-1c0-6-.07-12.05-.36-18.08-.19-3.8-.39-7.57-.67-11.34q-.51-7.09-1.3-14.17c-.5-4.8-1.13-9.6-1.85-14.38-1-6.54-2.19-13-3.65-19.48a187.38,187.38,0,0,0-7.23-24.64A106.26,106.26,0,0,0,907.75,69a15.85,15.85,0,0,0-5-5.3,4.88,4.88,0,0,1-.67-.53,16.35,16.35,0,0,0-3.32-2.26c-1.75-.91-3.48-1.8-5.28-2.62-5.76-2.57-11.67-4.75-17.6-6.94-5.38-2-10.81-3.79-16.36-5.31a35,35,0,0,0-10.66-1.27c-3.2.14-6.42.29-9.61.46-1.83.09-3.63.16-5.45.38A20.62,20.62,0,0,0,823,50.45a2.16,2.16,0,0,1-.31.29,1,1,0,0,0-.36.74c-.14,1.63-.39,3.24-.41,4.88a7.8,7.8,0,0,0,3.92,7.2,9.76,9.76,0,0,0,1.39.75,10.21,10.21,0,0,0,4.06.76,18.17,18.17,0,0,1,7.64,1.66c-.15.84-.27,1.63-.39,2.45a156.83,156.83,0,0,0-1.42,17,190.13,190.13,0,0,0,.44,20.53c.4,5,1,10,1.73,15a180.35,180.35,0,0,0,5.25,23.66,164.61,164.61,0,0,0,18,40.39,7.49,7.49,0,0,0,1.56,1.85l20.08,17.22c2.54,2.19,5.11,4.33,7.8,6.58-.74.68-1.39,1.23-2,1.81-2.3,2-4.63,4-6.75,6.22A67.65,67.65,0,0,0,864,267a79.57,79.57,0,0,0,.36,8,29.65,29.65,0,0,0,.65,4.59c.62-.31,1.2-.62,1.75-.91a1.42,1.42,0,0,1,.43.94,75.44,75.44,0,0,0,2.31,7.25,45.61,45.61,0,0,0,4.37,8.86,2.74,2.74,0,0,0,.93,1.13c.63-1.34.82-2.81,1.42-4.11a1,1,0,0,1,.6.48,24.34,24.34,0,0,0,4,3.73c4.15,3.17,8.45,6.1,12.87,8.88,10,6.3,20.32,11.91,30.84,17.17,6.17,3.08,12.37,6,18.71,8.75a3.86,3.86,0,0,0,1.92.43c1.68-.14,3.34-.22,5-.34l10.62-.72a13.49,13.49,0,0,1,2,0c2.86.16,5.72.36,8.6.55,1.85.14,3.72.22,5.57.41a5.45,5.45,0,0,0,3.49-.56l.12-.07a397.76,397.76,0,0,0,43.63-22.38,183.46,183.46,0,0,0,18.71-12.56,20.9,20.9,0,0,0,2.84-2.64c.36-.39.6-.87,1.1-1.11.48.41.46,1,.65,1.51a16.16,16.16,0,0,0,.91,2.57,4.51,4.51,0,0,0,1-1.27,49.68,49.68,0,0,0,4.92-10.52q1.05-3,1.8-6.05a.36.36,0,0,1,.56-.26,6.82,6.82,0,0,0,1.6.79c.22-1.85.46-3.65.6-5.45a75.28,75.28,0,0,0,.12-11.92,67.6,67.6,0,0,0-23.17-46.76c-1.27-1.15-2.6-2.28-3.87-3.41-.24-.21-.6-.33-.57-.79.21-.17.43-.36.64-.55,9.06-7.54,18-15.23,26.9-22.94a10.23,10.23,0,0,0,1.85-2.18,167.56,167.56,0,0,0,20.58-50.39,188,188,0,0,0,3.82-22.94q.84-8.17,1-16.35c.12-5.55,0-11.12-.45-16.67-.27-3.92-.72-7.81-1.3-11.7,0-.31-.27-.62,0-1a2.26,2.26,0,0,0,.41-.09,19.11,19.11,0,0,1,7.86-1.47,8.47,8.47,0,0,0,4.1-1.13,7.91,7.91,0,0,0,4.3-5.28A9.56,9.56,0,0,0,1101.3,55.78Z"/></svg>